# xmcd
#
# Track frame offsets: 
#        150
#        10924
#        26205
#        44129
#        64901
#        80283
#        96585
#        114333
#        131768
#        164166
#
# Disc length: 2476 seconds
#
# Revision: 0
# Processed by: cddbd v1.5.2PL0 Copyright (c) Steve Scherf et al.
# Submitted via: ExactAudioCopy v0.99pb3
#
DISCID=9009aa0a
DTITLE=Bobby - Prisoner Of The Blues
DYEAR=2000
DGENRE=Blues
TTITLE0=Bob's Mood
TTITLE1=Ain't That A Man
TTITLE2=Who's Your Next Stop After Me
TTITLE3=Don't Waste Your Lipstick On Me
TTITLE4=Hey Ther Baby
TTITLE5=Good Love
TTITLE6=I Wanna ...
TTITLE7=It's Hard To Get Along Anymore
TTITLE8=Lies
TTITLE9=Not A Thing To Do
EXTD=
EXTT0=
EXTT1=
EXTT2=
EXTT3=
EXTT4=
EXTT5=
EXTT6=
EXTT7=
EXTT8=
EXTT9=
PLAYORDER=
